<mxfile host="app.diagrams.net" agent="Mozilla/5.0 (X11; Linux x86_64) AppleWebKit/537.36 (KHTML, like Gecko) Chrome/131.0.0.0 Safari/537.36" version="26.0.8">
  <diagram name="Page-1" id="F-86t3H7WfNWwWMnKCw-">
    <mxGraphModel dx="1434" dy="786" grid="1" gridSize="10" guides="1" tooltips="1" connect="1" arrows="1" fold="1" page="1" pageScale="1" pageWidth="850" pageHeight="1100" math="0" shadow="0">
      <root>
        <mxCell id="0" />
        <mxCell id="1" parent="0" />
        <mxCell id="Mc2AFaffPODwrsvcCSGy-6" style="edgeStyle=orthogonalEdgeStyle;rounded=0;orthogonalLoop=1;jettySize=auto;html=1;startArrow=classic;startFill=1;" edge="1" parent="1" source="Mc2AFaffPODwrsvcCSGy-1" target="Mc2AFaffPODwrsvcCSGy-2">
          <mxGeometry relative="1" as="geometry" />
        </mxCell>
        <mxCell id="Mc2AFaffPODwrsvcCSGy-1" value="IR Temp Sensor" style="sketch=0;outlineConnect=0;fontColor=#232F3E;gradientColor=none;fillColor=#7AA116;strokeColor=none;dashed=0;verticalLabelPosition=bottom;verticalAlign=top;align=center;html=1;fontSize=12;fontStyle=0;aspect=fixed;pointerEvents=1;shape=mxgraph.aws4.iot_thing_temperature_sensor;" vertex="1" parent="1">
          <mxGeometry x="174" y="251" width="78" height="78" as="geometry" />
        </mxCell>
        <mxCell id="Mc2AFaffPODwrsvcCSGy-4" value="Custom LED PCB" style="html=1;verticalLabelPosition=bottom;align=center;labelBackgroundColor=#ffffff;verticalAlign=top;strokeWidth=2;strokeColor=#0080F0;shadow=0;dashed=0;shape=mxgraph.ios7.icons.lightbulb;" vertex="1" parent="1">
          <mxGeometry x="654" y="275.15" width="22.8" height="29.7" as="geometry" />
        </mxCell>
        <mxCell id="Mc2AFaffPODwrsvcCSGy-5" value="" style="group" vertex="1" connectable="0" parent="1">
          <mxGeometry x="424" y="250" width="67.39999999999998" height="56" as="geometry" />
        </mxCell>
        <mxCell id="Mc2AFaffPODwrsvcCSGy-2" value="Arduino/MCU with WiFi" style="dashed=0;outlineConnect=0;html=1;align=center;labelPosition=center;verticalLabelPosition=bottom;verticalAlign=top;shape=mxgraph.weblogos.arduino;fillColor=#36868D;strokeColor=none" vertex="1" parent="Mc2AFaffPODwrsvcCSGy-5">
          <mxGeometry y="24" width="67.4" height="32" as="geometry" />
        </mxCell>
        <mxCell id="Mc2AFaffPODwrsvcCSGy-3" value="" style="html=1;verticalLabelPosition=bottom;align=center;labelBackgroundColor=#ffffff;verticalAlign=top;strokeWidth=2;strokeColor=#0080F0;shadow=0;dashed=0;shape=mxgraph.ios7.icons.wifi;pointerEvents=1" vertex="1" parent="Mc2AFaffPODwrsvcCSGy-5">
          <mxGeometry x="18.850000000000023" width="29.7" height="21" as="geometry" />
        </mxCell>
        <mxCell id="Mc2AFaffPODwrsvcCSGy-7" style="edgeStyle=orthogonalEdgeStyle;rounded=0;orthogonalLoop=1;jettySize=auto;html=1;entryX=0;entryY=0.5;entryDx=0;entryDy=0;entryPerimeter=0;startArrow=classic;startFill=1;" edge="1" parent="1" source="Mc2AFaffPODwrsvcCSGy-2" target="Mc2AFaffPODwrsvcCSGy-4">
          <mxGeometry relative="1" as="geometry" />
        </mxCell>
        <mxCell id="Mc2AFaffPODwrsvcCSGy-8" style="edgeStyle=orthogonalEdgeStyle;rounded=0;orthogonalLoop=1;jettySize=auto;html=1;startArrow=classic;startFill=1;" edge="1" parent="1" source="Mc2AFaffPODwrsvcCSGy-9" target="Mc2AFaffPODwrsvcCSGy-12">
          <mxGeometry relative="1" as="geometry" />
        </mxCell>
        <mxCell id="Mc2AFaffPODwrsvcCSGy-9" value="IR Temp Sensor" style="sketch=0;outlineConnect=0;fontColor=#232F3E;gradientColor=none;fillColor=#7AA116;strokeColor=none;dashed=0;verticalLabelPosition=bottom;verticalAlign=top;align=center;html=1;fontSize=12;fontStyle=0;aspect=fixed;pointerEvents=1;shape=mxgraph.aws4.iot_thing_temperature_sensor;" vertex="1" parent="1">
          <mxGeometry x="174" y="41" width="78" height="78" as="geometry" />
        </mxCell>
        <mxCell id="Mc2AFaffPODwrsvcCSGy-10" value="Custom LED PCB" style="html=1;verticalLabelPosition=bottom;align=center;labelBackgroundColor=#ffffff;verticalAlign=top;strokeWidth=2;strokeColor=#0080F0;shadow=0;dashed=0;shape=mxgraph.ios7.icons.lightbulb;" vertex="1" parent="1">
          <mxGeometry x="654" y="65.14999999999998" width="22.8" height="29.7" as="geometry" />
        </mxCell>
        <mxCell id="Mc2AFaffPODwrsvcCSGy-11" value="" style="group" vertex="1" connectable="0" parent="1">
          <mxGeometry x="424" y="40" width="67.39999999999998" height="56" as="geometry" />
        </mxCell>
        <mxCell id="Mc2AFaffPODwrsvcCSGy-12" value="Arduino/MCU with WiFi" style="dashed=0;outlineConnect=0;html=1;align=center;labelPosition=center;verticalLabelPosition=bottom;verticalAlign=top;shape=mxgraph.weblogos.arduino;fillColor=#36868D;strokeColor=none" vertex="1" parent="Mc2AFaffPODwrsvcCSGy-11">
          <mxGeometry y="24" width="67.4" height="32" as="geometry" />
        </mxCell>
        <mxCell id="Mc2AFaffPODwrsvcCSGy-13" value="" style="html=1;verticalLabelPosition=bottom;align=center;labelBackgroundColor=#ffffff;verticalAlign=top;strokeWidth=2;strokeColor=#0080F0;shadow=0;dashed=0;shape=mxgraph.ios7.icons.wifi;pointerEvents=1" vertex="1" parent="Mc2AFaffPODwrsvcCSGy-11">
          <mxGeometry x="18.850000000000023" width="29.7" height="21" as="geometry" />
        </mxCell>
        <mxCell id="Mc2AFaffPODwrsvcCSGy-14" style="edgeStyle=orthogonalEdgeStyle;rounded=0;orthogonalLoop=1;jettySize=auto;html=1;entryX=0;entryY=0.5;entryDx=0;entryDy=0;entryPerimeter=0;startArrow=classic;startFill=1;" edge="1" parent="1" source="Mc2AFaffPODwrsvcCSGy-12" target="Mc2AFaffPODwrsvcCSGy-10">
          <mxGeometry relative="1" as="geometry" />
        </mxCell>
        <mxCell id="Mc2AFaffPODwrsvcCSGy-15" style="edgeStyle=orthogonalEdgeStyle;rounded=0;orthogonalLoop=1;jettySize=auto;html=1;startArrow=classic;startFill=1;dashed=1;" edge="1" parent="1" source="Mc2AFaffPODwrsvcCSGy-3">
          <mxGeometry relative="1" as="geometry">
            <mxPoint x="458" y="120" as="targetPoint" />
          </mxGeometry>
        </mxCell>
      </root>
    </mxGraphModel>
  </diagram>
</mxfile>
